<svg width="20" height="20" viewBox="0 0 20 20" fill="none" xmlns="http://www.w3.org/2000/svg">
<path d="M11.73 18.103C11.5542 18.3758 11.3019 18.6023 10.9982 18.7597C10.6946 18.9171 10.3504 19 10 19C9.64964 19 9.30541 18.9171 9.00179 18.7597C8.69818 18.6023 8.44583 18.3758 8.27002 18.103M16 6.40096C16 4.96853 15.3679 3.59478 14.2426 2.5819C13.1174 1.56903 11.5913 1 10 1C8.4087 1 6.88258 1.56903 5.75736 2.5819C4.63214 3.59478 4 4.96853 4 6.40096C4 12.7021 1 14.5024 1 14.5024H19C19 14.5024 16 12.7021 16 6.40096Z" stroke="#4C4D4F" stroke-linecap="round" stroke-linejoin="round"/>
</svg>
