<svg width="10" height="10" viewBox="0 0 10 10" fill="none" xmlns="http://www.w3.org/2000/svg">
<path d="M3.3125 5C3.3125 5.04973 3.29275 5.09742 3.25758 5.13258C3.22242 5.16775 3.17473 5.1875 3.125 5.1875C3.07527 5.1875 3.02758 5.16775 2.99242 5.13258C2.95725 5.09742 2.9375 5.04973 2.9375 5C2.9375 4.95027 2.95725 4.90258 2.99242 4.86742C3.02758 4.83225 3.07527 4.8125 3.125 4.8125C3.17473 4.8125 3.22242 4.83225 3.25758 4.86742C3.29275 4.90258 3.3125 4.95027 3.3125 5ZM3.3125 5H3.125M5.1875 5C5.1875 5.04973 5.16775 5.09742 5.13258 5.13258C5.09742 5.16775 5.04973 5.1875 5 5.1875C4.95027 5.1875 4.90258 5.16775 4.86742 5.13258C4.83225 5.09742 4.8125 5.04973 4.8125 5C4.8125 4.95027 4.83225 4.90258 4.86742 4.86742C4.90258 4.83225 4.95027 4.8125 5 4.8125C5.04973 4.8125 5.09742 4.83225 5.13258 4.86742C5.16775 4.90258 5.1875 4.95027 5.1875 5ZM5.1875 5H5M7.0625 5C7.0625 5.04973 7.04275 5.09742 7.00758 5.13258C6.97242 5.16775 6.92473 5.1875 6.875 5.1875C6.82527 5.1875 6.77758 5.16775 6.74242 5.13258C6.70725 5.09742 6.6875 5.04973 6.6875 5C6.6875 4.95027 6.70725 4.90258 6.74242 4.86742C6.77758 4.83225 6.82527 4.8125 6.875 4.8125C6.92473 4.8125 6.97242 4.83225 7.00758 4.86742C7.04275 4.90258 7.0625 4.95027 7.0625 5ZM7.0625 5H6.875M9.5 5C9.5 7.278 7.485 9.125 5 9.125C4.56859 9.12552 4.13902 9.06886 3.7225 8.9565C3.13538 9.36943 2.41916 9.55705 1.705 9.485C1.6256 9.47734 1.54653 9.4665 1.468 9.4525C1.71443 9.16207 1.88274 8.81359 1.957 8.44C2.002 8.2115 1.8905 7.9895 1.7235 7.827C0.965 7.089 0.5 6.0945 0.5 5C0.5 2.722 2.515 0.875 5 0.875C7.485 0.875 9.5 2.722 9.5 5Z" stroke="white" stroke-linecap="round" stroke-linejoin="round"/>
</svg>
