<svg width="4" height="14" viewBox="0 0 4 14" fill="none" xmlns="http://www.w3.org/2000/svg">
<path d="M2 2.625C1.83424 2.625 1.67527 2.55915 1.55806 2.44194C1.44085 2.32473 1.375 2.16576 1.375 2C1.375 1.83424 1.44085 1.67527 1.55806 1.55806C1.67527 1.44085 1.83424 1.375 2 1.375C2.16576 1.375 2.32473 1.44085 2.44194 1.55806C2.55915 1.67527 2.625 1.83424 2.625 2C2.625 2.16576 2.55915 2.32473 2.44194 2.44194C2.32473 2.55915 2.16576 2.625 2 2.625ZM2 7.625C1.83424 7.625 1.67527 7.55915 1.55806 7.44194C1.44085 7.32473 1.375 7.16576 1.375 7C1.375 6.83424 1.44085 6.67527 1.55806 6.55806C1.67527 6.44085 1.83424 6.375 2 6.375C2.16576 6.375 2.32473 6.44085 2.44194 6.55806C2.55915 6.67527 2.625 6.83424 2.625 7C2.625 7.16576 2.55915 7.32473 2.44194 7.44194C2.32473 7.55915 2.16576 7.625 2 7.625ZM2 12.625C1.83424 12.625 1.67527 12.5592 1.55806 12.4419C1.44085 12.3247 1.375 12.1658 1.375 12C1.375 11.8342 1.44085 11.6753 1.55806 11.5581C1.67527 11.4408 1.83424 11.375 2 11.375C2.16576 11.375 2.32473 11.4408 2.44194 11.5581C2.55915 11.6753 2.625 11.8342 2.625 12C2.625 12.1658 2.55915 12.3247 2.44194 12.4419C2.32473 12.5592 2.16576 12.625 2 12.625Z" stroke="#4C4D4F" stroke-width="1.5" stroke-linecap="round" stroke-linejoin="round"/>
</svg>
