<svg width="10" height="10" viewBox="0 0 10 10" fill="none" xmlns="http://www.w3.org/2000/svg">
<path d="M6.91437 1.95455L7.63415 1.23434C7.7842 1.0843 7.98771 1 8.1999 1C8.4121 1 8.61561 1.0843 8.76566 1.23434C8.9157 1.38439 9 1.5879 9 1.80009C9 2.01229 8.9157 2.2158 8.76566 2.36585L4.23494 6.89656C4.00938 7.12199 3.73121 7.28769 3.42557 7.37869L2.27998 7.72002L2.62131 6.57443C2.71231 6.26879 2.87801 5.99062 3.10344 5.76506L6.91437 1.95455ZM6.91437 1.95455L8.03991 3.08008M7.39992 6.01337V8.04001C7.39992 8.29462 7.29877 8.53879 7.11874 8.71883C6.93871 8.89886 6.69453 9 6.43993 9H1.95999C1.70538 9 1.46121 8.89886 1.28117 8.71883C1.10114 8.53879 1 8.29462 1 8.04001V3.56007C1 3.30547 1.10114 3.06129 1.28117 2.88126C1.46121 2.70123 1.70538 2.60008 1.95999 2.60008H3.98663" stroke="#4C4D4F" stroke-width="0.5" stroke-linecap="round" stroke-linejoin="round"/>
</svg>
