<svg width="10" height="10" viewBox="0 0 10 10" fill="none" xmlns="http://www.w3.org/2000/svg">
<path d="M4.66667 4.66667L4.68489 4.65778C4.74188 4.62931 4.80584 4.61776 4.86918 4.62451C4.93253 4.63127 4.99262 4.65603 5.04233 4.69587C5.09204 4.73571 5.12929 4.78897 5.14967 4.84933C5.17006 4.90969 5.17271 4.97462 5.15733 5.03644L4.84267 6.29689C4.82718 6.35874 4.82975 6.42374 4.85009 6.48417C4.87042 6.54461 4.90766 6.59794 4.95739 6.63785C5.00713 6.67776 5.06726 6.70256 5.13066 6.70932C5.19407 6.71609 5.25808 6.70452 5.31511 6.676L5.33333 6.66667M9 5C9 5.52529 8.89654 6.04543 8.69552 6.53073C8.4945 7.01604 8.19986 7.45699 7.82843 7.82843C7.45699 8.19986 7.01604 8.4945 6.53073 8.69552C6.04543 8.89654 5.52529 9 5 9C4.47471 9 3.95457 8.89654 3.46927 8.69552C2.98396 8.4945 2.54301 8.19986 2.17157 7.82843C1.80014 7.45699 1.5055 7.01604 1.30448 6.53073C1.10346 6.04543 1 5.52529 1 5C1 3.93913 1.42143 2.92172 2.17157 2.17157C2.92172 1.42143 3.93913 1 5 1C6.06087 1 7.07828 1.42143 7.82843 2.17157C8.57857 2.92172 9 3.93913 9 5ZM5 3.33333H5.00356V3.33689H5V3.33333Z" stroke="#4C4D4F" stroke-width="0.5" stroke-linecap="round" stroke-linejoin="round"/>
</svg>
