<svg width="9" height="10" viewBox="0 0 9 10" fill="none" xmlns="http://www.w3.org/2000/svg">
<path d="M5.5086 3.76937L5.36665 7.46158M3.4024 7.46158L3.26045 3.76937M7.34978 2.45248C7.49008 2.47382 7.62957 2.49638 7.76905 2.52058M7.34978 2.45248L6.91164 8.14792C6.89375 8.3798 6.789 8.59639 6.61832 8.75436C6.44764 8.91234 6.22362 9.00007 5.99105 9H2.778C2.54543 9.00007 2.32141 8.91234 2.15073 8.75436C1.98005 8.59639 1.8753 8.3798 1.85741 8.14792L1.41927 2.45248M7.34978 2.45248C6.8763 2.3809 6.40037 2.32658 5.92295 2.28962M1.41927 2.45248C1.27897 2.47341 1.13948 2.49597 1 2.52017M1.41927 2.45248C1.89275 2.3809 2.36868 2.32658 2.8461 2.28962M5.92295 2.28962V1.91383C5.92295 1.42974 5.54962 1.02606 5.06553 1.01088C4.61164 0.996373 4.15741 0.996373 3.70352 1.01088C3.21943 1.02606 2.8461 1.43015 2.8461 1.91383V2.28962M5.92295 2.28962C4.89886 2.21047 3.87019 2.21047 2.8461 2.28962" stroke="#4C4D4F" stroke-width="0.5" stroke-linecap="round" stroke-linejoin="round"/>
</svg>
