<svg width="13" height="14" viewBox="0 0 13 14" fill="none" xmlns="http://www.w3.org/2000/svg">
<path d="M5.12498 1.62667C5.18498 1.26533 5.49831 1 5.86498 1H7.59365C7.96031 1 8.27365 1.26533 8.33365 1.62667L8.47565 2.48067C8.51765 2.73 8.68431 2.938 8.90565 3.06067C8.95498 3.08733 9.00365 3.116 9.05231 3.14533C9.26831 3.276 9.53231 3.31667 9.76898 3.228L10.5803 2.924C10.7466 2.86147 10.9296 2.85999 11.0969 2.91981C11.2642 2.97963 11.4047 3.09688 11.4936 3.25067L12.3576 4.74867C12.4464 4.90247 12.4776 5.08275 12.4459 5.25744C12.4141 5.43213 12.3215 5.5899 12.1843 5.70267L11.5156 6.254C11.3203 6.414 11.2236 6.66267 11.2283 6.91533C11.2294 6.972 11.2294 7.02867 11.2283 7.08533C11.2236 7.33733 11.3203 7.58533 11.515 7.74533L12.185 8.29733C12.4676 8.53067 12.541 8.93333 12.3583 9.25067L11.493 10.7487C11.4042 10.9024 11.2638 11.0197 11.0967 11.0796C10.9295 11.1396 10.7466 11.1383 10.5803 11.076L9.76898 10.772C9.53231 10.6833 9.26898 10.724 9.05165 10.8547C9.00331 10.8841 8.95441 10.9125 8.90498 10.94C8.68431 11.062 8.51765 11.27 8.47565 11.5193L8.33365 12.3727C8.27365 12.7347 7.96031 13 7.59365 13H5.86431C5.49764 13 5.18431 12.7347 5.12431 12.3733L4.98231 11.5193C4.94098 11.27 4.77431 11.062 4.55298 10.9393C4.50354 10.9121 4.45465 10.8838 4.40631 10.8547C4.18964 10.724 3.92631 10.6833 3.68898 10.772L2.87764 11.076C2.71146 11.1383 2.52856 11.1397 2.36144 11.0799C2.19433 11.0201 2.05385 10.903 1.96498 10.7493L1.10031 9.25133C1.01161 9.09753 0.980343 8.91725 1.01208 8.74256C1.04382 8.56787 1.13651 8.4101 1.27364 8.29733L1.94298 7.746C2.13764 7.586 2.23431 7.33733 2.22964 7.08467C2.2286 7.028 2.2286 6.97133 2.22964 6.91467C2.23431 6.66267 2.13764 6.41467 1.94298 6.25467L1.27364 5.70267C1.13667 5.58993 1.04409 5.43229 1.01236 5.25775C0.980625 5.08321 1.01179 4.90307 1.10031 4.74933L1.96498 3.25133C2.05377 3.09742 2.19432 2.98004 2.36159 2.92009C2.52885 2.86014 2.71197 2.86153 2.87831 2.924L3.68898 3.228C3.92631 3.31667 4.18964 3.276 4.40631 3.14533C4.45431 3.116 4.50364 3.08733 4.55298 3.06C4.77431 2.938 4.94098 2.73 4.98231 2.48067L5.12498 1.62667Z" stroke="white" stroke-linecap="round" stroke-linejoin="round"/>
<path d="M8.73047 7C8.73047 7.53043 8.51976 8.03914 8.14468 8.41421C7.76961 8.78929 7.2609 9 6.73047 9C6.20004 9 5.69133 8.78929 5.31625 8.41421C4.94118 8.03914 4.73047 7.53043 4.73047 7C4.73047 6.46957 4.94118 5.96086 5.31625 5.58579C5.69133 5.21071 6.20004 5 6.73047 5C7.2609 5 7.76961 5.21071 8.14468 5.58579C8.51976 5.96086 8.73047 6.46957 8.73047 7Z" stroke="white" stroke-linecap="round" stroke-linejoin="round"/>
</svg>
