<svg width="10" height="10" viewBox="0 0 10 10" fill="none" xmlns="http://www.w3.org/2000/svg">
<path d="M4.95361 1.15971C4.97298 1.11248 5.00596 1.07207 5.04835 1.04363C5.09075 1.01519 5.14065 1 5.1917 1C5.24276 1 5.29265 1.01519 5.33505 1.04363C5.37745 1.07207 5.41043 1.11248 5.42979 1.15971L6.40275 3.49985C6.42096 3.54364 6.4509 3.58155 6.48927 3.60942C6.52764 3.63729 6.57296 3.65404 6.62023 3.65781L9.14672 3.86019C9.37519 3.8785 9.46768 4.16375 9.29369 4.31256L7.36884 5.96178C7.33288 5.99254 7.30608 6.03261 7.29138 6.0776C7.27668 6.12258 7.27465 6.17074 7.28551 6.21681L7.87386 8.6824C7.88569 8.73186 7.88259 8.78372 7.86496 8.83143C7.84732 8.87914 7.81595 8.92055 7.77479 8.95043C7.73364 8.98032 7.68455 8.99734 7.63373 8.99934C7.58291 9.00135 7.53264 8.98825 7.48926 8.96169L5.32586 7.64076C5.28544 7.61613 5.23903 7.6031 5.1917 7.6031C5.14438 7.6031 5.09796 7.61613 5.05755 7.64076L2.89415 8.96215C2.85077 8.9887 2.80049 9.0018 2.74967 8.9998C2.69885 8.9978 2.64976 8.98078 2.60861 8.95089C2.56746 8.92101 2.53608 8.87959 2.51845 8.83189C2.50082 8.78418 2.49772 8.73232 2.50954 8.68285L3.0979 6.21681C3.10881 6.17074 3.1068 6.12257 3.0921 6.07757C3.0774 6.03258 3.05057 5.99251 3.01457 5.96178L1.08971 4.31256C1.05117 4.27941 1.02328 4.23561 1.00956 4.18666C0.995845 4.13771 0.996907 4.0858 1.01261 4.03745C1.02832 3.9891 1.05798 3.94647 1.09785 3.91493C1.13771 3.88339 1.18602 3.86435 1.23669 3.86019L3.76317 3.65781C3.81045 3.65404 3.85576 3.63729 3.89413 3.60942C3.9325 3.58155 3.96244 3.54364 3.98066 3.49985L4.95361 1.15971Z" stroke="#4C4D4F" stroke-width="0.5" stroke-linecap="round" stroke-linejoin="round"/>
</svg>
